# xmcd
# 
# Track frame offsets:
#     150
#     3535
#     25001
#     48785
#     69545
#     89328
#     105213
#     106738
#     146094
#     161443
#     166381
#     186359
#     209995
#     224430
#     241837
#     252996
#     256904
#     277744
#     299340
#     317398
#     319583
# 
# Disc length: 4439
# 
# Revision: 2
# Processed by: cddbd v1.5.2PL0 Copyright (c) Steve Scherf et al.
# Submitted via: fre:ac v1.0.31
# 
DISCID=23115515
DTITLE=Various Artist - Routine Jazz #2
DYEAR=2003
DGENRE=Jazz
TTITLE0=KEI KOBAYASHI - Routine Jazz Intro
TTITLE1=Buddy Rich - Nutville
TTITLE2=52nd street - My Favorite Things
TTITLE3=Judy Roberts - Round Midnight
TTITLE4=Guida de Palma - Para Lennon e McCartney
TTITLE5=Primavera - Viva Brasil
TTITLE6=KEI KOBAYASHI - Routine Jazz Interlude1
TTITLE7=Rad - Skind-Le-Le
TTITLE8=Meta Roos - Oh Lori
TTITLE9=KEI KOBAYASHI - Routine Jazz Interlude2
TTITLE10=Mike Longo - Windmills Of Your Mind
TTITLE11=Hadley Caliman - The Latin Thing
TTITLE12=Lenita Bruno - Constant Rain
TTITLE13=Richard Groove Holmes - No Trouble On The Mountain
TTITLE14=The 9th Creation - Quit It
TTITLE15=KEI KOBAYASHI - Routine Jazz Interlude3
TTITLE16=Vida Nova - Te Caliente
TTITLE17=Sirius B - High'N Dry
TTITLE18=Daedelus - A Mashnote
TTITLE19=KEI KOBAYASHI - Routine Jazz Ending
TTITLE20=Richard Youngs - The World is Silence In Your Hand
EXTD=YEAR: 2003
EXTT0=
EXTT1=
EXTT2=
EXTT3=
EXTT4=
EXTT5=
EXTT6=
EXTT7=
EXTT8=
EXTT9=
EXTT10=
EXTT11=
EXTT12=
EXTT13=
EXTT14=
EXTT15=
EXTT16=
EXTT17=
EXTT18=
EXTT19=
EXTT20=
PLAYORDER=
